<?xml version="1.0" encoding="UTF-8"?>
<svg enable-background="new 0 0 24 24" version="1.1" viewBox="0 0 24 24" xml:space="preserve" xmlns="http://www.w3.org/2000/svg">
<style type="text/css">
	.st0{fill-rule:evenodd;clip-rule:evenodd;fill:#E5E5E5;}
</style>
<path class="st0" d="m8.1 2.5h7.8c2.8 0 5.1 2.3 5.1 5.1v3.7c0 2.8-2.3 5.1-5.1 5.1h-2.4l-5.6 5.1v-5.1c-2.7-0.1-4.9-2.3-4.9-5.1v-3.7c0-2.8 2.3-5.1 5.1-5.1zm10.9 8.8v-3.7c0-1.7-1.4-3.1-3.1-3.1h-7.8c-1.7 0-3.1 1.4-3.1 3.1v3.7c0 1.7 1.4 3.1 3.1 3.1h1.4 3.2 3.3c1.6 0 3-1.4 3-3.1zm-3-1.8c0 0.6-0.4 1-1 1s-1-0.4-1-1 0.4-1 1-1 1 0.4 1 1zm-3-0.1c0 0.6-0.4 1-1 1s-1-0.4-1-1 0.4-1 1-1 1 0.4 1 1zm-3 0c0 0.6-0.4 1-1 1s-1-0.4-1-1 0.4-1 1-1 1 0.4 1 1z"/>
</svg>
