<?xml version="1.0" encoding="UTF-8"?>
<svg enable-background="new 0 0 24 24" version="1.1" viewBox="0 0 24 24" xml:space="preserve" xmlns="http://www.w3.org/2000/svg">
<style type="text/css">
	.st0{fill-rule:evenodd;clip-rule:evenodd;fill:#FFFFFF;}
</style>
<path class="st0" d="m18.2 18.9h-5.7v-5.7h5.8v5.6c0.1 0 0 0.1-0.1 0.1zm-12.9-0.2v-5.6h5.7v5.7h-5.5c-0.1 0.1-0.2 0-0.2-0.1zm2.8-14.3c0.3 0.1 1.1 0.9 1.8 2h-1.8c-0.7 0-1.3-0.4-1.3-1s0.6-1 1.3-1zm7.3 0c0.7 0 1.3 0.5 1.3 1s-0.6 1-1.3 1h-1.8c0.8-1 1.5-1.9 1.8-2zm-2.9 4.5h6.5c0.1 0 0.1 0.1 0.1 0.1v2.5c0 0.1-0.1 0.1-0.1 0.1h-6.5v-2.7zm-7.9 2.8c-0.1 0-0.1-0.1-0.1-0.1v-2.6c0-0.1 0.1-0.1 0.1-0.1h6.5v2.8h-6.5zm14.4-4.3h-2c0.7-0.4 1.2-1.2 1.2-2 0-1.3-1.2-2.4-2.7-2.4-1.3 0-2.8 2.2-3.6 3.6-1-1.4-2.5-3.6-3.8-3.6-1.5 0-2.7 1.1-2.7 2.4 0 0.8 0.5 1.5 1.2 2h-2c-0.9 0-1.6 0.7-1.6 1.6v2.5c0 0.6 0.4 1.2 0.9 1.4v5.8c0 0.9 0.7 1.6 1.6 1.6h12.7c0.9 0 1.6-0.7 1.6-1.6v-5.8c0.5-0.3 0.8-0.8 0.8-1.4v-2.5c0-0.9-0.7-1.6-1.6-1.6z"/>
</svg>