<svg xmlns="http://www.w3.org/2000/svg" viewBox="0 0 24 24"><path fill="#E5E5E5" d="M12 7.5c-2.6 0-4.6 2-4.6 4.5s2.1 4.5 4.6 4.5 4.6-2 4.6-4.5-2-4.5-4.6-4.5zM13.9 3c.2 0 .4.2.5.4l.3 2.4c.6.2 1.1.5 1.6.9l2.3-.9c.2-.1.5 0 .6.2l1.9 3.1c-.1.2-.1.4-.3.5l-2 1.5c0 .3.1.6.1.9s0 .6-.1.9l1.9 1.5c.2.1.2.4.1.6l-1.9 3.1c-.1.2-.4.3-.6.2l-2.3-.9c-.5.3-1 .7-1.6.9l-.3 2.4c0 .2-.2.4-.5.4H9.9c-.2 0-.4-.2-.5-.4l-.3-2.4c-.6-.2-1.1-.5-1.6-.9l-2.3.9c-.2.1-.5 0-.6-.2L2.7 15c.3-.3.3-.5.5-.6l2-1.5c0-.3-.1-.6-.1-.9s0-.6.1-.9l-2-1.5c-.2-.1-.2-.3-.1-.5L5 6c0-.3.3-.3.5-.3l2.3.9c.5-.3 1-.7 1.6-.9l.3-2.4c0-.1.2-.3.4-.3h3.8z"/></svg>