<?xml version="1.0" encoding="utf-8"?>
<!-- Generator: Adobe Illustrator 23.0.4, SVG Export Plug-In . SVG Version: 6.00 Build 0)  -->
<svg version="1.1" id="Layer_1" xmlns="http://www.w3.org/2000/svg" xmlns:xlink="http://www.w3.org/1999/xlink" x="0px" y="0px"
	 viewBox="0 0 24 24" enable-background="new 0 0 24 24" xml:space="preserve">
<path fill-rule="evenodd" clip-rule="evenodd" fill="#FFFFFF" d="M21.5,13.7c-0.3-0.9-1.2-1.8-2.4-2.5c0.5,0,1.1-0.1,1.4-0.4
	c0,0,0.1-0.1,0.1-0.1c0.5-0.7-0.3-1.8-2.1-2.8c0.7-1.3,1.2-2.5,1.4-3.3c0.1-0.2,0.1-0.4,0.1-0.5c0-0.2,0-0.3,0-0.3
	c-0.1,0.4-0.6,1.9-1.9,3.9h0l0,0c-1-0.4-2.2-0.8-3.7-0.9l0,0c0,0,0,0,0,0c-0.4-0.7-1.4-2.5-2.4-3.5c-0.7-0.7-1.2-0.9-1.6-0.9
	C10,2.3,9.7,2.6,9.5,2.8c-0.7,0.7-0.9,1.9-1,3.3c-0.3-0.4-0.6-0.9-1-1c0,0-0.1,0-0.1,0C6.6,5,5.9,6.3,6,8.3c-1.5,0-2.8,0.2-3.6,0.4
	C2.2,8.8,2,8.8,1.9,8.9C1.7,9,1.6,9.1,1.6,9.1c0.4-0.1,2-0.4,4.4-0.3v0l0,0C6,9.8,6.4,11,7,12.4l0,0v0c-0.4,0.6-1.5,2.4-1.8,3.8
	c-0.2,0.9-0.2,1.5,0,1.8c0.2,0.5,0.7,0.7,0.9,0.7c1,0.2,2.2-0.1,3.4-0.8c-0.3,0.4-0.5,1-0.4,1.4v0l0,0c0.2,0.8,1.7,0.8,3.5-0.3
	c0.8,1.3,1.6,2.3,2.2,2.9c0.1,0.1,0.3,0.2,0.4,0.3c0.2,0.1,0.3,0.1,0.3,0.1c-0.3-0.3-1.3-1.5-2.4-3.6c0,0,0,0,0,0l0,0
	c0.9-0.7,1.8-1.6,2.7-2.8l0,0c0,0,0,0,0,0l0,0c0.8,0,2.8,0.1,4.2-0.3c0.9-0.3,1.4-0.6,1.6-0.9C21.7,14.4,21.6,14,21.5,13.7
	 M9.8,18.3c-0.1-0.2,0.1-0.5,0.2-0.8c0.4-0.3,0.8-0.5,1.1-0.8c0.3,0.5,0.5,1,0.8,1.5C10.9,18.8,10.1,18.9,9.8,18.3
	C9.9,18.4,9.9,18.3,9.8,18.3 M19.3,10.6c-0.1,0.2-0.5,0.3-0.8,0.3c-0.4-0.2-0.8-0.4-1.3-0.6c0.3-0.5,0.6-1,0.9-1.5
	C19.1,9.4,19.6,10.1,19.3,10.6 M12.5,17.9c-0.2-0.4-0.4-0.9-0.7-1.4c1.1,0,1.9-0.3,2.2-0.5c0.3-0.2,0.3-0.3,0.3-0.3s0,0-0.5,0.3
	c-0.6,0.2-1.3,0.3-1.9,0.3c1.3-1.1,2.4-2.2,3.3-3.3c0.3-0.4,0.7-0.8,1-1.2c0,0,0,0,0,0l0,0c-0.1-0.1-0.2-0.1-0.3-0.2
	c-0.1-0.1-0.3-0.2-0.3-0.2c-0.1,0.1-0.2,0.2-0.3,0.3c-1.3,1.5-3.2,3.2-4.9,4.2c-0.8-0.4-1.6-1.2-2.2-2.4C7.3,11.8,7,10.2,6.9,8.9
	c0.5,0,1,0.1,1.5,0.1c-0.5,0.9-0.7,1.8-0.6,2.1c0,0.3,0.1,0.4,0.1,0.4s0,0,0.1-0.6C8,10.3,8.3,9.7,8.7,9.2c0.3,1.6,0.7,3.2,1.2,4.5
	c0.2,0.5,0.4,1,0.6,1.5h0c0,0,0,0,0,0c0.1,0,0.2-0.1,0.4-0.1c0.1-0.1,0.3-0.1,0.3-0.2c0-0.1-0.1-0.3-0.1-0.4
	c-0.6-1.8-1.2-4.4-1.2-6.4c0.8-0.5,1.9-0.8,3.2-0.7c1.7,0.1,3.4,0.6,4.5,1.2C17.3,9,17,9.5,16.7,9.9c-0.5-0.9-1.2-1.5-1.6-1.6
	c-0.3-0.1-0.4-0.1-0.4-0.1s0,0,0.5,0.3c0.5,0.4,0.9,0.9,1.2,1.5c-1.5-0.6-3.2-1-4.5-1.2c-0.5-0.1-1-0.2-1.5-0.3v0c0,0,0,0,0,0
	c0,0.1,0,0.2,0,0.4c0,0.2,0,0.3,0,0.4c0.1,0,0.3,0,0.4,0.1c1.9,0.4,4.4,1.2,6.1,2.2c0,0.9-0.3,2-1,3.1
	C14.9,16.1,13.6,17.2,12.5,17.9 M8.4,6.8c0,0.5,0.1,0.9,0.1,1.5c-0.5,0-1.1,0-1.6,0c0-1.2,0.4-1.9,0.9-1.9c0,0,0,0,0.1,0
	C8.1,6.4,8.3,6.6,8.4,6.8 M6.6,15c0.1-0.6,0.5-1.4,0.8-1.8c0,0.1,0.1,0.1,0.1,0.2c0.7,1.3,1.6,2.2,2.4,2.6c-1.2,0.6-2.2,0.9-3,0.5
	c-0.2-0.1-0.3-0.3-0.4-0.4C6.4,15.8,6.5,15.4,6.6,15 M16.2,15.2c0.8-1.3,1.1-2.5,1.1-3.4c1.1,0.7,1.8,1.5,1.9,2.3
	c0,0.2,0,0.4-0.2,0.5c-0.2,0.3-0.6,0.4-1,0.5c-0.5,0.1-1.5,0.2-1.9,0.3C16.1,15.3,16.1,15.3,16.2,15.2 M13.4,6.7
	c-1.6,0-2.7,0.3-3.5,0.8c0-1.3,0.4-2.3,1-2.8c0.2-0.1,0.4-0.1,0.5-0.1c0.3,0.1,0.7,0.3,0.9,0.6c0.4,0.4,0.9,1.1,1.2,1.5
	C13.5,6.7,13.4,6.7,13.4,6.7"/>
</svg>
