<svg version="1.1" xmlns="http://www.w3.org/2000/svg" viewBox="0 0 20 20" fill="#FFFFFF">
<path id="check-circle-filled-background" fill-rule="evenodd" clip-rule="evenodd" d="M10,0C4.4,0,0,4.4,0,10s4.4,10,10,10s10-4.4,10-10S15.6,0,10,0z"/>
<path id="check-circle-filled-check" fill-rule="evenodd" clip-rule="evenodd" fill="#000000" d="M15.2,8.8l-5.4,5.4c-0.4,0.3-1.1,0.3-1.6,0L8,14l-3.1-3.1
	c-0.4-0.4-0.4-1.1,0-1.6c0.4-0.4,1.1-0.4,1.6,0L9,11.9l4.7-4.7c0.4-0.4,1.1-0.4,1.6,0C15.7,7.7,15.7,8.3,15.2,8.8z"/>
</svg>
