<svg xmlns="http://www.w3.org/2000/svg" viewBox="0 0 24 24"><path fill="#FFF" d="M5 12c1.1 0 2-.9 2-2s-.9-2-2-2-2 .9-2 2 .9 2 2 2zm3.8-1.5l1.1.8c.1.1.1.2.1.3l-1 1.7c-.1.1-.2.2-.3.1L7.3 13c-.3.2-.6.4-.9.5l-.2 1.3c.1.1 0 .2-.2.2H4c-.1 0-.2-.1-.3-.2l-.2-1.3c-.3-.1-.6-.3-.9-.5l-1.3.5c-.1 0-.3 0-.3-.1l-1-1.7c-.1-.1 0-.2.1-.3l1.1-.8v-.5-.5L.1 8.7C0 8.6 0 8.5 0 8.4l1-1.7c.1-.1.2-.2.3-.1l1.4.4c.3-.2.6-.4.9-.5l.2-1.3c-.1-.1 0-.2.2-.2h2c.1 0 .2.1.3.2l.2 1.3c.3.2.6.3.8.5l1.3-.5c.1 0 .3 0 .3.1l1 1.7c.1.1 0 .2-.1.3l-1 .9v1zM16 12c2.2 0 4-1.8 4-4s-1.8-4-4-4-4 1.8-4 4 1.8 4 4 4m0-6.1c1.2 0 2.1.9 2.1 2.1s-.9 2.1-2.1 2.1-2.1-.9-2.1-2.1.9-2.1 2.1-2.1m0 7.1c2.7 0 8 1.3 8 4v3h-1.9v-3c0-.6-3.1-2.1-6.1-2.1S9.9 16.4 9.9 17v3H8v-3c0-2.7 5.3-4 8-4"/></svg>