<?xml version="1.0" encoding="utf-8"?>
<!-- Generator: Adobe Illustrator 23.0.4, SVG Export Plug-In . SVG Version: 6.00 Build 0)  -->
<svg version="1.1" id="Layer_1" xmlns="http://www.w3.org/2000/svg" xmlns:xlink="http://www.w3.org/1999/xlink" x="0px" y="0px"
	 viewBox="0 0 24 24" enable-background="new 0 0 24 24" xml:space="preserve">
<path fill-rule="evenodd" clip-rule="evenodd" fill="#FFFFFF" d="M12,11.5c-0.8,0-1.5,0.7-1.5,1.5v4c0,0.8,0.7,1.5,1.5,1.5
	c0.8,0,1.5-0.7,1.5-1.5v-4C13.5,12.2,12.8,11.5,12,11.5z M12,1c2.8,0,5,2.2,5,5v2h1c1.1,0,2,0.9,2,2v10c0,1.1-0.9,2-2,2H6
	c-1.1,0-2-0.9-2-2V10c0-1.1,0.9-2,2-2h1V6C7,3.2,9.2,1,12,1z M15.1,8H8.9V6c0-1.7,1.4-3.1,3.1-3.1c1.7,0,3.1,1.4,3.1,3.1V8z"/>
</svg>
