<svg width="24" height="24" viewBox="0 0 24 24" fill="none" xmlns="http://www.w3.org/2000/svg">
<path d="M20.9 13V11.6C20.9 9.19999 19.1 7.29999 16.9 7.29999C14.7 7.29999 12.9 9.19999 12.9 11.6V13C11.8 13 10.9 14 10.9 15.1V20.9C10.9 22.1 11.8 23 13 23H20.8C22 23 22.9 22.1 22.9 20.9V15.1C22.9 14 22 13.1 20.9 13ZM16.9 8.89999C18.3 8.89999 19.4 10.1 19.4 11.6V13H14.4V11.6C14.4 10.1 15.5 8.89999 16.9 8.89999Z" fill="white"/>
<path d="M8.9 15.1C8.9 15.1 8.9 15 8.9 15.1L5.1 15C3.9 15 3 14.1 3 12.9V5.1C3 3.9 3.9 3 5.1 3H14.9C16.1 3 17 3.9 17 5.1V5.3C17.7 5.3 18.4 5.5 19 5.7V5.1C19 2.8 17.2 1 14.9 1H5.1C2.8 1 1 2.8 1 5.1V12.9C1 15.2 2.8 17 5.1 17H8.9V15.1Z" fill="white"/>
</svg>
