<svg xmlns="http://www.w3.org/2000/svg" viewBox="0 0 24 24"><path fill="#FFF" d="M15.9 13.8c.1-.6.1-1.2.1-1.8s-.1-1.2-.1-1.8h3c.1.6.2 1.2.2 1.8s-.1 1.2-.2 1.8h-3zm-1.6 5c.5-1 1-2.1 1.2-3.2h2.7c-.8 1.5-2.2 2.6-3.9 3.2zm-.2-5H9.9c-.1-.6-.1-1.2-.1-1.8s.1-1.2.1-1.8h4.2c.1.6.1 1.2.1 1.8s0 1.2-.1 1.8zM12 19.2c-.7-1.1-1.3-2.3-1.7-3.6h3.4c-.4 1.3-1 2.5-1.7 3.6zM8.4 8.4H5.8C6.6 6.9 8 5.8 9.7 5.2c-.6 1-1 2.1-1.3 3.2zm-2.6 7.2h2.7c.3 1.1.7 2.2 1.2 3.2-1.7-.6-3.1-1.7-3.9-3.2zM5 13.8c-.1-.6-.2-1.2-.2-1.8s.1-1.2.2-1.8h3c0 .6-.1 1.2-.1 1.8s.1 1.2.1 1.8H5zm7-9c.7 1.1 1.3 2.3 1.7 3.6h-3.4c.4-1.3 1-2.5 1.7-3.6zm6.2 3.6h-2.7c-.3-1.1-.7-2.2-1.2-3.2 1.7.6 3.1 1.7 3.9 3.2zM12 3c-5 0-9 4-9 9s4 9 9 9 9-4 9-9-4-9-9-9z"/></svg>