<?xml version="1.0" encoding="utf-8"?>
<!-- Generator: Adobe Illustrator 23.0.4, SVG Export Plug-In . SVG Version: 6.00 Build 0)  -->
<svg version="1.1" id="Layer_1" xmlns="http://www.w3.org/2000/svg" xmlns:xlink="http://www.w3.org/1999/xlink" x="0px" y="0px"
	 viewBox="0 0 24 24" enable-background="new 0 0 24 24" xml:space="preserve">
<path fill="#FFFFFF" d="M10,18C6,12,8,6.9,15,6.9C15,5.2,15,2,15,2l8,7l-8,7v-5C15,11,9,10,10,18z M16.1,17.7L16.1,17.7
	c0,1.3-1,2.3-2.2,2.3H6.1c-1.2,0-2.2-1.1-2.2-2.3V9.3c0-1.3,1-2.3,2.2-2.3l4.4,0v-2H6.1C3.8,4.9,2,6.9,2,9.3v8.4C2,20,3.8,22,6.1,22
	h7.8c2.2,0,4.1-2,4.1-4.3l-0.1-1.7L16.1,17.7z"/>
</svg>
