<svg xmlns="http://www.w3.org/2000/svg" viewBox="0 0 24 24"><path fill="#FFF" d="M12 5.5l1.6 3.4c.3.6.8 1 1.5 1.1l3.9.6-2.8 2.9c-.4.5-.6 1.1-.5 1.7l.7 3.9-3.4-1.8c-.3-.2-.6-.2-1-.2s-.7.1-1 .2l-3.2 1.8.7-3.9c.1-.6-.1-1.3-.5-1.7l-2.9-2.9 3.8-.6c.7-.1 1.2-.5 1.5-1.1L12 5.5M12 2c-.4 0-.7.2-.8.6L8.6 8l-5.8.9c-.4.1-.7.3-.8.7-.1.3 0 .8.4 1.1l4.1 4.2-1 5.9c-.1.4.1.8.4 1 .2.2.4.2.6.2.2 0 .3 0 .4-.1l5.1-2.8 5.1 2.8c.2.1.3.1.5.1s.4-.1.6-.2c.3-.2.5-.6.4-1l-1-5.9 4.1-4.2c.3-.3.4-.7.3-1.1-.2-.4-.5-.7-.9-.7L15.4 8l-2.5-5.4c-.2-.4-.5-.6-.9-.6z"/></svg>