<?xml version="1.0" encoding="utf-8"?>
<!-- Generator: Adobe Illustrator 23.0.4, SVG Export Plug-In . SVG Version: 6.00 Build 0)  -->
<svg version="1.1" id="Layer_1" xmlns="http://www.w3.org/2000/svg" xmlns:xlink="http://www.w3.org/1999/xlink" x="0px" y="0px"
	 viewBox="0 0 24 24" enable-background="new 0 0 24 24" xml:space="preserve">
<path fill="#FFFFFF" d="M12,6.6c2,0,3.6,1.6,3.6,3.6c0,2.2-2.7,2.5-2.7,4.5h-1.8c0-2.9,2.7-2.7,2.7-4.5c0-1-0.8-1.8-1.8-1.8
	s-1.8,0.8-1.8,1.8H8.4C8.4,8.2,10,6.6,12,6.6z M12.9,15.6v1.8h-1.8v-1.8H12.9z M12,4.8C8,4.8,4.8,8,4.8,12S8,19.2,12,19.2
	s7.2-3.2,7.2-7.2S16,4.8,12,4.8z M12,3c5,0,9,4,9,9s-4,9-9,9s-9-4-9-9S7,3,12,3z"/>
</svg>
