<svg width="24" height="24" viewBox="0 0 24 24" fill="none" xmlns="http://www.w3.org/2000/svg">
<path d="M20.8 13H14.4V11.6C14.4 9.19999 12.6 7.29999 10.4 7.29999C8.19999 7.29999 6.39999 9.19999 6.39999 11.6V13.3H7.99999V11.6C7.99999 10.1 9.09999 8.89999 10.5 8.89999C11.9 8.89999 13 10.1 13 11.6V13C11.9 13 11 14 11 15.1V20.9C11 22.1 11.9 23 13.1 23H20.9C22.1 23 23 22.1 23 20.9V15.1C22.9 13.9 22 13 20.8 13Z" fill="white"/>
<path d="M8.9 15.1C8.9 15.1 8.9 15 8.9 15.1L5.1 15C3.9 15 3 14.1 3 12.9V5.1C3 3.9 3.9 3 5.1 3H14.9C16.1 3 17 3.9 17 5.1V11H19V5.1C19 2.8 17.2 1 14.9 1H5.1C2.8 1 1 2.8 1 5.1V12.9C1 15.2 2.8 17 5.1 17H8.9V15.1Z" fill="white"/>
</svg>
