<svg xmlns="http://www.w3.org/2000/svg" xmlns:xlink="http://www.w3.org/1999/xlink" width="48" height="48" viewBox="0 0 48 48">
  <defs>
    <path id="group-a" d="M20,5.33333333 L20,26.6666667 L13.3333333,20 L8,20 L8,12 L13.3333333,12 L20,5.33333333 Z M22.6666667,21.3333333 L22.6666667,10.6666667 C24.8758057,10.6666667 26.6666667,13.0544813 26.6666667,16 C26.6666667,18.8636987 24.9739161,21.2002466 22.8497639,21.3278452 L22.6666667,21.3333333 L22.6666667,10.6666667 Z"/>
  </defs>
  <g fill="none" fill-rule="evenodd">
    <path fill="#000" fill-opacity=".72" d="M19,0 C26.8399175,0 33.5707922,4.74837678 36.4735769,11.5260831 C43.2516232,14.4292078 48,21.1600825 48,29 C48,39.4934102 39.4934102,48 29,48 C21.1600825,48 14.4292078,43.2516232 11.5264231,36.4739169 C4.74837678,33.5707922 0,26.8399175 0,19 C0,8.50658975 8.50658975,0 19,0 Z"/>
    <path fill="#7ED321" fill-rule="nonzero" d="M19,3.90798505e-14 C26.8399395,3.90798505e-14 33.57083,4.74840343 36.4736013,11.5261402 C43.2515043,14.4290392 48,21.1599843 48,29 C48,39.4934102 39.4934102,48 29,48 C21.1596005,48 14.4283801,43.2510393 11.5258878,36.4726668 C4.74840343,33.57083 -4.51194637e-13,26.8399395 -4.51194637e-13,19 C-4.51194637e-13,8.50658975 8.50658975,3.90798505e-14 19,3.90798505e-14 Z M19,2 C9.61115925,2 2,9.61115925 2,19 C2,25.5378777 5.6906295,31.2137627 11.1021798,34.0579463 C11.2387408,34.1297913 11.3760314,34.199558 11.5143659,34.2674978 L11.1021798,34.0579463 C11.2828907,34.1529237 11.4655207,34.2447434 11.6499963,34.333332 L11.5143659,34.2674978 C11.6633383,34.3406621 11.8135212,34.4117077 11.9648801,34.4805967 L11.6499963,34.333332 C11.7950125,34.4029715 11.9411692,34.4706143 12.0884309,34.5362248 L11.9648801,34.4805967 C12.1485992,34.5642138 12.334051,34.6446535 12.521174,34.7218479 L12.0884309,34.5362248 C12.2588967,34.6121737 12.4308432,34.6853994 12.6042149,34.7558466 L12.6041143,34.7558064 L13.0654773,34.9354419 L13.0654773,34.9354419 L13.2195408,35.3335879 C13.2426059,35.3910253 13.2659756,35.4483077 13.2896479,35.505433 C13.4824732,35.9715654 13.6954654,36.4265631 13.9275263,36.8701084 C13.9498722,36.9122354 13.9724841,36.9550192 13.9952728,36.9976944 L13.9275263,36.8701084 C14.0072438,37.022475 14.0892116,37.1734901 14.1733793,37.3231036 L13.9952728,36.9976944 C16.8557875,42.3544347 22.50216,46 29,46 C38.3888407,46 46,38.3888407 46,29 C46,22.4491808 42.2947451,16.7637703 36.8656641,13.9251972 C36.7414461,13.8600724 36.6164225,13.7967033 36.490537,13.7348443 L36.8656641,13.9251972 C36.6954514,13.8362021 36.5235442,13.7500054 36.3500037,13.666668 L36.490537,13.7348443 C36.3369506,13.6593734 36.1820812,13.5861503 36.0259651,13.515218 L36.3500037,13.666668 C36.1961461,13.5927827 36.0410047,13.521145 35.8846219,13.4517974 C35.7503975,13.3922613 35.6150234,13.3343328 35.4787643,13.278124 L35.8846219,13.4517974 C35.7229867,13.3801205 35.5600255,13.3108902 35.3957851,13.2441534 L35.4787643,13.278124 C35.2988754,13.2039173 35.1174439,13.132708 34.9345227,13.0645581 L34.924,13.038 L34.77119,12.6433786 C34.7531572,12.5986632 34.7349398,12.5540421 34.7165385,12.5095162 C34.5958102,12.2166129 34.4669449,11.9280757 34.3303572,11.6438753 C34.3202464,11.6235514 34.310255,11.602868 34.3002229,11.5822081 L34.3303572,11.6438753 C34.1837655,11.3388594 34.0282787,11.0388388 33.8642818,10.7441987 C30.9616956,5.52881703 25.3929475,2 19,2 Z"/>
    <g transform="translate(8 8)">
      <mask id="group-b" fill="#fff">
        <use xlink:href="#group-a"/>
      </mask>
      <use fill="#FFF" xlink:href="#group-a"/>
      <g fill="#7ED321" mask="url(#group-b)">
        <rect width="32" height="32"/>
      </g>
    </g>
  </g>
</svg>
