<svg xmlns="http://www.w3.org/2000/svg" viewBox="0 0 24 24">
  <path d="M20 24H4c-2.2 0-4-1.8-4-4V4c0-2.2 1.8-4 4-4h16c2.2 0 4 1.8 4 4v16c0 2.2-1.8 4-4 4z" opacity=".72"/>
  <path fill="#6BDB02" d="M4 1C2.3 1 1 2.3 1 4v16c0 1.7 1.3 3 3 3h16c1.7 0 3-1.3 3-3V4c0-1.7-1.3-3-3-3H4zm0-1h16c2.2 0 4 1.8 4 4v16c0 2.2-1.8 4-4 4H4c-2.2 0-4-1.8-4-4V4c0-2.2 1.8-4 4-4z"/>
  <path fill="#6BDB02" fill-rule="evenodd" d="M14.7 14.7V9.3c1.1 0 2 1.2 2 2.7 0 1.4-.9 2.6-2 2.7V9.3v5.4zm-1.4-8v10.7L10 14H7.3v-4H10l3.3-3.3z" clip-rule="evenodd"/>
</svg>
