<svg xmlns="http://www.w3.org/2000/svg" xmlns:xlink="http://www.w3.org/1999/xlink" width="48" height="48" viewBox="0 0 48 48">
  <defs>
    <path id="group-a" d="M20,5.33333333 L20,26.6666667 L13.3333333,20 L8,20 L8,12 L13.3333333,12 L20,5.33333333 Z M22.6666667,21.3333333 L22.6666667,10.6666667 C24.8758057,10.6666667 26.6666667,13.0544813 26.6666667,16 C26.6666667,18.8636987 24.9739161,21.2002466 22.8497639,21.3278452 L22.6666667,21.3333333 L22.6666667,10.6666667 Z"/>
  </defs>
  <g fill="none" fill-rule="evenodd">
    <path fill="#000" fill-opacity=".72" d="M24,0 C37.254834,0 48,10.745166 48,24 C48,27.7561977 47.1370981,31.3108539 45.5987127,34.4765501 C44.1568923,32.3766999 41.7392189,31 39,31 C34.581722,31 31,34.581722 31,39 C31,41.7392189 32.3766999,44.1568923 34.475931,45.5988516 C31.3108539,47.1370981 27.7561977,48 24,48 C10.745166,48 0,37.254834 0,24 C0,10.745166 10.745166,0 24,0 Z"/>
    <path fill="#7ED321" fill-rule="nonzero" d="M24,0 C37.254834,0 48,10.745166 48,24 C48,27.7561977 47.1370981,31.3108539 45.5987127,34.4765501 C45.1867961,33.8760529 44.6950645,33.3351763 44.1389218,32.868566 C45.3354622,30.1567352 46,27.1559732 46,24 C46,11.8497355 36.1502645,2 24,2 C11.8497355,2 2,11.8497355 2,24 C2,36.1502645 11.8497355,46 24,46 C27.1559732,46 30.1567352,45.3354622 32.8699909,44.1386817 C33.3351763,44.6950645 33.8760529,45.1867961 34.475931,45.5988516 C31.3108539,47.1370981 27.7561977,48 24,48 C10.745166,48 0,37.254834 0,24 C0,10.745166 10.745166,0 24,0 Z"/>
    <g transform="translate(8 8)">
      <mask id="group-b" fill="#fff">
        <use xlink:href="#group-a"/>
      </mask>
      <use fill="#FFF" xlink:href="#group-a"/>
      <g fill="#7ED321" mask="url(#group-b)">
        <rect width="32" height="32"/>
      </g>
    </g>
  </g>
</svg>
