<svg xmlns="http://www.w3.org/2000/svg" xmlns:xlink="http://www.w3.org/1999/xlink" width="48" height="48" viewBox="0 0 48 48">
  <defs>
    <path id="group-15-a" d="M20,5.33333333 L20,26.6666667 L13.3333333,20 L8,20 L8,12 L13.3333333,12 L20,5.33333333 Z M22.6666667,21.3333333 L22.6666667,10.6666667 C24.8758057,10.6666667 26.6666667,13.0544813 26.6666667,16 C26.6666667,18.8636987 24.9739161,21.2002466 22.8497639,21.3278452 L22.6666667,21.3333333 L22.6666667,10.6666667 Z"/>
  </defs>
  <g fill="none" fill-rule="evenodd">
    <rect width="48" height="48" fill="#000" fill-opacity=".72" rx="8"/>
    <path fill="#7ED321" fill-rule="nonzero" d="M8,0 L40,0 C44.418278,0 48,3.581722 48,8 L48,40 C48,44.418278 44.418278,48 40,48 L8,48 C3.581722,48 0,44.418278 0,40 L0,8 C0,3.581722 3.581722,0 8,0 Z M8,2 C4.6862915,2 2,4.6862915 2,8 L2,40 C2,43.3137085 4.6862915,46 8,46 L40,46 C43.3137085,46 46,43.3137085 46,40 L46,8 C46,4.6862915 43.3137085,2 40,2 L8,2 Z"/>
    <g transform="translate(8 8)">
      <mask id="group-15-b" fill="#fff">
        <use xlink:href="#group-15-a"/>
      </mask>
      <use fill="#FFF" xlink:href="#group-15-a"/>
      <g fill="#7ED321" mask="url(#group-15-b)">
        <rect width="32" height="32"/>
      </g>
    </g>
  </g>
</svg>
