<svg xmlns="http://www.w3.org/2000/svg" viewBox="0 0 24 24"><path fill="#FFF" fill-rule="evenodd" d="M20.2 9.4c.3.2.8.5.8.9v3.5c0 .4-.4.7-.8.9-.3.2-.9.6-1.6.6-.8 1.8-2.5 3.2-4.5 3.6-.1.6-.7 1.1-1.4 1.1h-1.2c-.8 0-1.5-.7-1.5-1.5s.7-1.5 1.5-1.5h1.2c.5 0 1 .3 1.2.7 1.9-.4 3.4-1.9 4-3.7v-3.4c0-3.3-2.8-5.3-5.9-5.3-3.1 0-5.9 2-5.9 5.3v3.8c0 .4-.3.7-.7.7-.7 0-1.2-.4-1.6-.6-.4 0-.8-.3-.8-.7v-3.5c0-.4.4-.7.8-.9.3-.2.7-.3 1.1-.5C5.6 6.1 8.9 4 12 4c3.1 0 6.4 2.1 7.1 4.9.5.2.8.3 1.1.5" clip-rule="evenodd"/></svg>