<svg xmlns="http://www.w3.org/2000/svg" viewBox="0 0 24 24">
  <path d="M17.2 22.8c-1.6.8-3.3 1.2-5.2 1.2-6.6 0-12-5.4-12-12S5.4 0 12 0s12 5.4 12 12c0 1.9-.4 3.6-1.2 5.2-.7-1-1.9-1.7-3.3-1.7-2.2 0-4 1.8-4 4 0 1.4.7 2.6 1.7 3.3z" opacity=".72"/>
  <path fill="#6BDB02" fill-rule="evenodd" d="M14.7 14.7V9.3c1.1 0 2 1.2 2 2.7 0 1.4-.9 2.6-2 2.7V9.3v5.4zm-1.4-8v10.7L10 14H7.3v-4H10l3.3-3.3z" clip-rule="evenodd"/>
  <path fill="#6BDB02" d="M17.2 22.8c-1.6.8-3.3 1.2-5.2 1.2-6.6 0-12-5.4-12-12S5.4 0 12 0s12 5.4 12 12c0 1.9-.4 3.6-1.2 5.2-.2-.3-.5-.6-.7-.8.6-1.4.9-2.9.9-4.4 0-6.1-4.9-11-11-11S1 5.9 1 12s4.9 11 11 11c1.6 0 3.1-.3 4.4-.9.3.2.5.5.8.7z"/>
</svg>
