<svg xmlns="http://www.w3.org/2000/svg" viewBox="0 0 24 24">
  <path d="M24 14.5c0 5.2-4.3 9.5-9.5 9.5-3.9 0-7.3-2.4-8.7-5.8C2.4 16.8 0 13.4 0 9.5 0 4.3 4.3 0 9.5 0c3.9 0 7.3 2.4 8.7 5.8 3.4 1.4 5.8 4.8 5.8 8.7z" opacity=".72"/>
  <path fill="#6BDB02" d="M18.2 5.8C16.8 2.4 13.4 0 9.5 0 4.3 0 0 4.3 0 9.5c0 3.9 2.4 7.3 5.8 8.7 1.5 3.4 4.8 5.8 8.7 5.8 5.2 0 9.5-4.3 9.5-9.5 0-3.9-2.4-7.3-5.8-8.7zM14.5 23c-3.7 0-6.8-2.3-8-5.5-3.2-1.2-5.5-4.3-5.5-8C1 4.8 4.8 1 9.5 1c3.7 0 6.8 2.3 8 5.5 3.2 1.2 5.5 4.3 5.5 8 0 4.7-3.8 8.5-8.5 8.5z"/>
  <path fill="#6BDB02" fill-rule="evenodd" d="M14.7 14.7V9.3c1.1 0 2 1.2 2 2.7 0 1.4-.9 2.6-2 2.7V9.3v5.4zm-1.4-8v10.7L10 14H7.3v-4H10l3.3-3.3z" clip-rule="evenodd"/>
</svg>
