<svg xmlns="http://www.w3.org/2000/svg" viewBox="0 0 24 24"><path fill="#7ED321" d="M10.5 16.2c-2-.6-3.5-2.5-3.5-4.7 0-2.8 2.2-5 5-5s5 2.2 5 5c0 2.2-1.5 4.1-3.5 4.7-.3-.1-.7-.2-1-.2h-1c-.4 0-.7.1-1 .2zm9.7-6.8c-.3-.2-.7-.3-1.1-.5-.7-2.8-4-4.9-7.1-4.9-3.1 0-6.4 2.1-7.1 4.9-.5.2-.8.3-1.1.5-.4.2-.8.5-.8.9v3.5c0 .4.4.7.8.9.3.2.9.6 1.6.6.5 0 .7-.3.7-.7v-3.8c0-3.3 2.8-5.3 5.9-5.3 3.1 0 5.9 2 5.9 5.3v3.3c-.6 1.9-2.1 3.3-4 3.7-.3-.4-.7-.7-1.2-.7h-1.2c-.8 0-1.5.7-1.5 1.5s.7 1.5 1.5 1.5h1.2c.7 0 1.3-.5 1.4-1.2 2-.4 3.7-1.8 4.5-3.6.7 0 1.2-.4 1.6-.6.3-.2.8-.5.8-.9v-3.5c0-.4-.4-.7-.8-.9z"/></svg>